<?xml version="1.0" encoding="UTF-8"?>
<svg id="_레이어_2" data-name="레이어_2" xmlns="http://www.w3.org/2000/svg" version="1.1" viewBox="0 0 12 12">
  <!-- Generator: Adobe Illustrator 29.0.0, SVG Export Plug-In . SVG Version: 2.1.0 Build 186)  -->
  <defs>
    <style>
      .st0 {
        fill: #f60;
      }
    </style>
  </defs>
  <path class="st0" d="M0,9.8v.8c0,.7.6,1.4,1.4,1.4h.6c-.9-.5-1.5-1.3-1.9-2.2ZM8,7.5c0-2-1.6-4-4.1-4-1.7,0-3.1.6-4,1.5v2.1c.6-1.8,2.3-2.6,3.7-2.6,1.8,0,3.1,1.3,3.1,2.9,0,1.4-.6,2.5-2.2,2.8-.9.1-2.3-.4-2.2-1.7,0-.7.6-1.1,1.2-1.1-.6.8.2,1.4.8,1.3.6-.1,1-.7,1-1.2,0-.5-.5-1.3-1.7-1.3-1.5,0-2.4,1.1-2.4,2.4,0,1.6,1.5,2.7,3.1,2.7,2.3,0,3.7-1.5,3.7-3.7h0ZM0,1.3v2.1c1.1-.9,2.5-1.3,4-1.3,3.4,0,5.6,2.4,5.6,5.4s-1,3.7-2.5,4.5h3.6c.7,0,1.4-.6,1.4-1.4V1.4c0-.7-.6-1.4-1.4-1.4H1.3C.6,0,0,.6,0,1.3Z"/>
</svg>