<?xml version="1.0" encoding="UTF-8"?>
<svg id="_레이어_1" xmlns="http://www.w3.org/2000/svg" version="1.1" viewBox="0 0 256 256">
  <!-- Generator: Adobe Illustrator 29.0.0, SVG Export Plug-In . SVG Version: 2.1.0 Build 186)  -->
  <defs>
    <style>
      .st0, .st1 {
        fill: #f60;
      }

      .st2 {
        fill: #242938;
      }

      .st1 {
        display: none;
      }
    </style>
  </defs>
  <rect class="st2" width="256" height="256" rx="57.5" ry="57.5"/>
  <path class="st0" d="M0,191.5v13.8c4.2,25.4,20.8,45.7,50.2,50.8h16.2C28.8,248.6,10.6,227.4,0,191.5ZM171.4,154.3c0-42.3-36-80.2-86.7-80.2S19,86.7,0,105.8v44.4c12.7-38.1,48.7-55,78.3-55s65.6,27.5,65.6,61.4-12.7,52.9-46.5,59.2c-19,2.1-48.7-8.5-46.5-36,0-14.8,12.7-23.3,25.4-23.3-12.7,16.9,4.2,29.6,16.9,27.5,12.7-2.1,21.2-14.8,21.2-25.4s-10.6-27.5-36-27.5-50.8,23.3-50.8,50.8,31.7,57.1,65.6,57.1c48.7,0,78.3-27.5,78.3-74M0,57.1v16.9c23.3-19,52.9-27.5,84.6-27.5,71.9,0,118.5,50.8,118.5,114.2s-21.2,78.3-52.9,95.2h48.7c31.7,0,57.1-25.4,57.1-57.1V57.1c0-31.7-25.4-57.1-57.1-57.1H57.1C25.4,0,0,25.4,0,57.1Z"/>
  <path class="st1" d="M0,9.3c0,1.5,1.2,2.7,2.7,2.7"/>
</svg>