<?xml version="1.0" encoding="UTF-8"?>
<svg id="_레이어_1" xmlns="http://www.w3.org/2000/svg" version="1.1" viewBox="0 0 12 12">
  <!-- Generator: Adobe Illustrator 29.0.0, SVG Export Plug-In . SVG Version: 2.1.0 Build 186)  -->
  <defs>
    <style>
      .st0, .st1 {
        fill: #f60;
      }

      .st2 {
        fill: #242938;
      }

      .st1 {
        display: none;
      }
    </style>
  </defs>
  <rect class="st2" width="12" height="12" rx="2.7" ry="2.7"/>
  <path class="st0" d="M0,9.2v.5c.2,1.2,1,1.9,2.1,2.3h.7c-1.5-.4-2.3-1.1-2.8-2.8ZM8,7.5c0-2-1.6-4-4-4s-3.1.6-4,1.5v2.1c.6-1.8,2.3-2.6,3.7-2.6s3.1,1.3,3.1,2.9-.6,2.5-2.2,2.8c-.9.1-2.3-.4-2.2-1.7,0-.7.6-1.1,1.2-1.1-.6.8.2,1.4.8,1.3.6-.1,1-.7,1-1.2s-.5-1.3-1.7-1.3-2.4,1.1-2.4,2.4,1.5,2.7,3.1,2.7c2.3,0,3.7-1.3,3.7-3.5v-.2h0ZM0,2.7v.8c1.1-.9,2.5-1.3,4-1.3,3.4,0,5.6,2.4,5.6,5.4s-1,3.7-2.5,4.5h2.3c1.5,0,2.7-1.2,2.7-2.7V2.7c0-1.5-1.2-2.7-2.7-2.7H2.7C1.2,0,0,1.2,0,2.7Z"/>
  <path class="st1" d="M0,9.3c0,1.5,1.2,2.7,2.7,2.7"/>
</svg>